<svg xmlns="http://www.w3.org/2000/svg" viewBox="0 0 360 360" role="img" aria-label="Luka Service">
  <defs>
    <g id="tooth"><rect x="166" y="26" width="28" height="52" rx="4" /></g>
    <g id="piston">
      <path d="M-31-89H31Q39-89 39-81V-49Q39-41 31-41H-31Q-39-41-39-49V-81Q-39-89-31-89Z" />
      <rect x="-34" y="-70" width="68" height="6" rx="3" fill="#0D1B23" />
      <rect x="-7" y="-44" width="14" height="92" rx="7" />
      <circle cy="57" r="24" />
      <circle cy="57" r="9" fill="#0D1B23" />
    </g>
  </defs>
  <g fill="#C9824D">
    <use href="#tooth" />
    <use href="#tooth" transform="rotate(30 180 180)" />
    <use href="#tooth" transform="rotate(60 180 180)" />
    <use href="#tooth" transform="rotate(90 180 180)" />
    <use href="#tooth" transform="rotate(120 180 180)" />
    <use href="#tooth" transform="rotate(150 180 180)" />
    <use href="#tooth" transform="rotate(180 180 180)" />
    <use href="#tooth" transform="rotate(210 180 180)" />
    <use href="#tooth" transform="rotate(240 180 180)" />
    <use href="#tooth" transform="rotate(270 180 180)" />
    <use href="#tooth" transform="rotate(300 180 180)" />
    <use href="#tooth" transform="rotate(330 180 180)" />
    <circle cx="180" cy="180" r="118" />
  </g>
  <circle cx="180" cy="180" r="92" fill="#0D1B23" />
  <g fill="#F4F2ED" transform="translate(180 180)">
    <use href="#piston" transform="rotate(-43) scale(.82)" />
    <use href="#piston" transform="rotate(43) scale(.82)" />
  </g>
</svg>
